<?xml version="1.0" encoding="utf-8"?>
<!-- Generator: Adobe Illustrator 19.2.1, SVG Export Plug-In . SVG Version: 6.00 Build 0)  -->
<svg version="1.1" id="Layer_1" xmlns="http://www.w3.org/2000/svg" xmlns:xlink="http://www.w3.org/1999/xlink" x="0px" y="0px"
	 viewBox="0 0 77.634 150" style="enable-background:new 0 0 77.634 150;" xml:space="preserve">
<style type="text/css">
	.st0{fill:#B3C471;}
	.st1{fill:#CAD681;}
	.st2{fill:#585948;}
	.st3{fill:#7D1F4D;}
	.st4{fill:#FFFFFF;}
	.st5{fill:#5CD7FF;}
	.st6{fill:#7BF0D3;}
	.st7{fill:#4579B3;}
	.st8{fill:#E75C54;}
	.st9{fill:#FFE75B;}
	.st10{fill:#C55049;}
	.st11{fill:#E3B347;}
	.st12{fill:#A54242;}
	.st13{fill:#F7CC46;}
	.st14{fill:#E5B72D;}
	.st15{fill:#644E35;}
	.st16{opacity:0.2;}
	.st17{fill:#E5A13F;}
	.st18{fill:#A0A1A4;}
	.st19{fill:#6A5C4F;}
	.st20{fill:#D8F0F3;}
	.st21{fill:#64574B;}
	.st22{fill:#B6D7E0;}
	.st23{fill:#564B40;}
	.st24{fill:#99BCC8;}
	.st25{fill:#49494B;}
	.st26{fill:#EAFFFF;}
	.st27{fill:#756557;}
	.st28{fill:#383A3B;}
	.st29{fill:#2EB67F;}
	.st30{fill:#6D6D70;}
	.st31{fill:#59595B;}
	.st32{fill:#51DEFF;}
	.st33{fill:#40E0D6;}
	.st34{fill:#8FD7FF;}
	.st35{fill:#40CFE9;}
	.st36{fill:#3ED1BC;}
	.st37{fill:#8EB9FF;}
	.st38{fill:#425DB4;}
	.st39{fill:#F2557C;}
	.st40{fill:#CE3A62;}
	.st41{fill:#E3396F;}
	.st42{fill:#F4B0C5;}
	.st43{fill:#E73B60;}
	.st44{fill:#C5284C;}
	.st45{fill:#D92756;}
	.st46{fill:#EAEBEB;}
	.st47{clip-path:url(#SVGID_2_);fill:#E5E5E5;}
	.st48{fill:#D3D3D3;}
	.st49{fill:#E5E5E5;}
	.st50{fill:#254DAA;}
	.st51{fill:#214599;}
	.st52{fill:#F7ACAF;}
	.st53{fill:#EB2E38;}
	.st54{fill:#FFD66F;}
	.st55{fill:#CFA353;}
	.st56{fill:#CFC3BE;}
	.st57{fill:#87685C;}
	.st58{fill:#82D5A2;}
	.st59{fill:#56C681;}
	.st60{fill:#4AB569;}
	.st61{fill:#65CB8C;}
	.st62{fill:#DFE0E1;}
	.st63{fill:#1C9046;}
	.st64{fill:#76D8E8;}
	.st65{fill:#D393FF;}
	.st66{fill:#76D0E3;}
	.st67{fill:#D888FF;}
	.st68{fill:#715D94;}
	.st69{fill:#EA5FC9;}
	.st70{fill:#E04849;}
	.st71{fill:#F4CA94;}
	.st72{fill:#FC5B5A;}
	.st73{fill:#FC88E3;}
	.st74{fill:#FCAA52;}
	.st75{fill:#FDC866;}
	.st76{fill:#7A6CBE;}
	.st77{fill:#9480BE;}
	.st78{fill:#57CC76;}
	.st79{fill:#59E694;}
	.st80{fill:#434244;}
	.st81{fill:#BC936C;}
	.st82{fill:#C69F7B;}
	.st83{fill:#AD8863;}
	.st84{fill:#6F5E4B;}
	.st85{fill:#786652;}
	.st86{fill:#917056;}
	.st87{fill:#9653FF;}
	.st88{fill:#FCAB78;}
	.st89{fill:#5ED95E;}
	.st90{fill:#FDD75E;}
	.st91{fill:#FB5FFF;}
	.st92{fill:#2144B4;}
	.st93{fill:#7F7F7F;}
	.st94{fill:#8C8E91;}
	.st95{fill:#B5B7B9;}
	.st96{fill:#DBC5A8;}
	.st97{fill:#C7B085;}
	.st98{fill:#E882DC;}
	.st99{fill:#D365C4;}
	.st100{fill:#8B476B;}
	.st101{fill:#8FD096;}
	.st102{fill:#79BE7A;}
	.st103{fill:#4B9688;}
	.st104{fill:#2F7A6F;}
	.st105{fill:#E2983A;}
	.st106{fill:#F6A849;}
	.st107{fill:#F6A6B4;}
	.st108{fill:#F8B257;}
	.st109{fill:#DD8D33;}
	.st110{fill:#F09C40;}
	.st111{fill:#F2A54C;}
	.st112{fill:#B67738;}
	.st113{fill:#FFF272;}
	.st114{fill:#F9EDDF;}
	.st115{fill:#4CA0F5;}
	.st116{fill:#54AAF5;}
	.st117{fill:#4381D7;}
	.st118{fill:#4873C4;}
	.st119{fill:#FB3556;}
	.st120{opacity:0.1;fill:#434244;}
	.st121{fill:#F0D1B1;}
	.st122{fill:#DBB293;}
	.st123{fill:#E1C5A7;}
	.st124{fill:#C4A185;}
	.st125{fill:#99766F;}
</style>
<g>
	<g>
		<path class="st121" d="M76.39,25.515c0,2.02-0.36,4.08-1.13,6.08l-12.15,31.75l-31.75-12.15l12.15-31.75
			c3.35-8.77,13.18-13.16,21.95-9.81C72.23,12.225,76.39,18.675,76.39,25.515z M66.72,31.535c0.2-0.52-0.06-1.1-0.58-1.29
			c-0.51-0.2-1.09,0.06-1.29,0.57c-0.2,0.52,0.06,1.1,0.58,1.3C65.94,32.305,66.52,32.045,66.72,31.535z M62.79,41.805
			c0.19-0.51-0.06-1.09-0.58-1.29c-0.51-0.2-1.09,0.06-1.29,0.58c-0.2,0.51,0.06,1.09,0.58,1.29
			C62.01,42.585,62.59,42.325,62.79,41.805z M59.25,28.675c0.19-0.52-0.06-1.09-0.58-1.29c-0.52-0.2-1.09,0.06-1.29,0.58
			c-0.2,0.51,0.06,1.09,0.57,1.29C58.47,29.445,59.05,29.195,59.25,28.675z M58.86,52.085c0.19-0.52-0.06-1.1-0.58-1.3
			c-0.52-0.19-1.09,0.07-1.29,0.58c-0.2,0.52,0.06,1.1,0.58,1.29C58.08,52.855,58.66,52.595,58.86,52.085z M55.32,38.945
			c0.19-0.51-0.07-1.09-0.58-1.29c-0.52-0.19-1.09,0.06-1.29,0.58c-0.2,0.51,0.06,1.09,0.57,1.29
			C54.54,39.725,55.12,39.465,55.32,38.945z M51.77,25.815c0.2-0.51-0.06-1.09-0.57-1.29c-0.52-0.2-1.1,0.06-1.29,0.58
			c-0.2,0.51,0.06,1.09,0.57,1.29C51,26.595,51.58,26.335,51.77,25.815z M51.39,49.225c0.19-0.52-0.07-1.1-0.58-1.29
			c-0.52-0.2-1.1,0.06-1.29,0.57c-0.2,0.52,0.06,1.1,0.57,1.29C50.61,49.995,51.19,49.735,51.39,49.225z M47.84,36.095
			c0.2-0.52-0.06-1.1-0.57-1.3c-0.52-0.19-1.1,0.06-1.29,0.58c-0.2,0.52,0.06,1.09,0.57,1.29
			C47.07,36.865,47.65,36.605,47.84,36.095z M43.91,46.365c0.2-0.52-0.06-1.09-0.57-1.29c-0.52-0.2-1.1,0.06-1.29,0.57
			c-0.2,0.52,0.06,1.1,0.57,1.3C43.14,47.135,43.72,46.875,43.91,46.365z"/>
	</g>
	<g>
		
			<rect x="16.537" y="61.397" transform="matrix(0.3572 -0.934 0.934 0.3572 -48.0546 86.9599)" class="st122" width="45.235" height="33.995"/>
	</g>
	<g>
		<path class="st121" d="M46.95,105.595l-12.42,32.47c-3.36,8.77-13.19,13.16-21.96,9.8c-8.76-3.35-13.15-13.18-9.8-21.95
			l12.43-32.47L46.95,105.595z M35.99,111.855c0.2-0.51-0.06-1.09-0.58-1.29c-0.51-0.2-1.09,0.06-1.29,0.58
			c-0.2,0.51,0.06,1.09,0.58,1.29C35.21,112.625,35.79,112.375,35.99,111.855z M32.06,122.125c0.2-0.51-0.06-1.09-0.58-1.29
			c-0.51-0.19-1.09,0.06-1.29,0.58c-0.2,0.52,0.06,1.09,0.58,1.29C31.28,122.905,31.86,122.645,32.06,122.125z M28.52,108.995
			c0.19-0.51-0.06-1.09-0.58-1.29c-0.52-0.2-1.09,0.06-1.29,0.58c-0.2,0.51,0.06,1.09,0.58,1.29
			C27.74,109.775,28.32,109.515,28.52,108.995z M28.13,132.405c0.19-0.52-0.06-1.1-0.58-1.29c-0.52-0.2-1.09,0.06-1.29,0.57
			c-0.2,0.52,0.06,1.1,0.58,1.3C27.35,133.175,27.93,132.915,28.13,132.405z M24.59,119.275c0.19-0.52-0.06-1.1-0.58-1.3
			c-0.52-0.19-1.09,0.07-1.29,0.58c-0.2,0.52,0.06,1.1,0.57,1.29C23.81,120.045,24.39,119.785,24.59,119.275z M21.04,106.135
			c0.2-0.51-0.06-1.09-0.57-1.29c-0.52-0.19-1.1,0.06-1.29,0.58c-0.2,0.52,0.06,1.09,0.57,1.29
			C20.27,106.915,20.85,106.655,21.04,106.135z M20.66,129.545c0.19-0.52-0.07-1.09-0.58-1.29c-0.52-0.2-1.1,0.06-1.29,0.58
			c-0.2,0.51,0.06,1.09,0.57,1.29C19.88,130.315,20.46,130.065,20.66,129.545z M17.11,116.415c0.2-0.52-0.06-1.1-0.57-1.29
			c-0.52-0.2-1.1,0.06-1.29,0.57c-0.2,0.52,0.06,1.1,0.57,1.29C16.34,117.185,16.92,116.925,17.11,116.415z M13.18,126.685
			c0.2-0.51-0.06-1.09-0.57-1.29c-0.52-0.2-1.1,0.06-1.29,0.58c-0.2,0.51,0.06,1.09,0.57,1.29
			C12.41,127.465,12.99,127.205,13.18,126.685z"/>
	</g>
	<g>
		<g>
			<path class="st123" d="M56.358,19.453c1.747-4.574,5.263-7.94,9.465-9.654c-0.123-0.05-0.239-0.108-0.364-0.156
				c-8.77-3.35-18.6,1.04-21.95,9.81l-12.15,31.75l11.274,4.314L56.358,19.453z"/>
		</g>
	</g>
	<g>
		<polygon class="st124" points="42.567,55.491 31.36,51.203 15.2,93.453 26.4,97.739 		"/>
	</g>
	<g>
		<g>
			<path class="st123" d="M15.618,125.923l10.788-28.181L15.2,93.453l-12.43,32.47c-3.35,8.77,1.04,18.6,9.8,21.95
				c4.202,1.61,8.641,1.425,12.501-0.153C16.549,144.242,12.314,134.573,15.618,125.923z"/>
		</g>
	</g>
	<g>
		<path class="st125" d="M26.584,83.845c-0.447,0.323-0.548,0.948-0.225,1.396c0.322,0.446,0.949,0.548,1.396,0.225
			c2.926-2.114,6.31-2.675,9.277-1.536c2.978,1.138,5.128,3.823,5.899,7.368c0.103,0.468,0.517,0.787,0.977,0.787
			c0.07,0,0.142-0.007,0.214-0.022c0.539-0.118,0.882-0.65,0.765-1.19c-0.918-4.217-3.521-7.428-7.141-8.811
			C34.135,80.678,30.066,81.329,26.584,83.845z"/>
		<path class="st125" d="M66.14,30.245c-0.51-0.2-1.09,0.06-1.29,0.57c-0.2,0.52,0.06,1.1,0.58,1.3c0.51,0.19,1.09-0.07,1.29-0.58
			C66.92,31.015,66.66,30.435,66.14,30.245z"/>
		<path class="st125" d="M62.21,40.515c-0.51-0.2-1.09,0.06-1.29,0.58c-0.2,0.51,0.06,1.09,0.58,1.29c0.51,0.2,1.09-0.06,1.29-0.58
			C62.98,41.295,62.73,40.715,62.21,40.515z"/>
		<path class="st125" d="M58.67,27.385c-0.52-0.2-1.09,0.06-1.29,0.58c-0.2,0.51,0.06,1.09,0.57,1.29c0.52,0.19,1.1-0.06,1.3-0.58
			C59.44,28.155,59.19,27.585,58.67,27.385z"/>
		<path class="st125" d="M58.28,50.785c-0.52-0.19-1.09,0.07-1.29,0.58c-0.2,0.52,0.06,1.1,0.58,1.29c0.51,0.2,1.09-0.06,1.29-0.57
			C59.05,51.565,58.8,50.985,58.28,50.785z"/>
		<path class="st125" d="M54.74,37.655c-0.52-0.19-1.09,0.06-1.29,0.58c-0.2,0.51,0.06,1.09,0.57,1.29c0.52,0.2,1.1-0.06,1.3-0.58
			C55.51,38.435,55.25,37.855,54.74,37.655z"/>
		<path class="st125" d="M51.2,24.525c-0.52-0.2-1.1,0.06-1.29,0.58c-0.2,0.51,0.06,1.09,0.57,1.29c0.52,0.2,1.1-0.06,1.29-0.58
			C51.97,25.305,51.71,24.725,51.2,24.525z"/>
		<path class="st125" d="M50.81,47.935c-0.52-0.2-1.1,0.06-1.29,0.57c-0.2,0.52,0.06,1.1,0.57,1.29c0.52,0.2,1.1-0.06,1.3-0.57
			C51.58,48.705,51.32,48.125,50.81,47.935z"/>
		<path class="st125" d="M47.27,34.795c-0.52-0.19-1.1,0.06-1.29,0.58c-0.2,0.52,0.06,1.09,0.57,1.29c0.52,0.2,1.1-0.06,1.29-0.57
			C48.04,35.575,47.78,34.995,47.27,34.795z"/>
		<path class="st125" d="M43.34,45.075c-0.52-0.2-1.1,0.06-1.29,0.57c-0.2,0.52,0.06,1.1,0.57,1.3c0.52,0.19,1.1-0.07,1.29-0.58
			C44.11,45.845,43.85,45.275,43.34,45.075z"/>
		<path class="st125" d="M34.7,112.435c0.51,0.19,1.09-0.06,1.29-0.58c0.2-0.51-0.06-1.09-0.58-1.29c-0.51-0.2-1.09,0.06-1.29,0.58
			C33.92,111.655,34.18,112.235,34.7,112.435z"/>
		<path class="st125" d="M30.77,122.705c0.51,0.2,1.09-0.06,1.29-0.58c0.2-0.51-0.06-1.09-0.58-1.29c-0.51-0.19-1.09,0.06-1.29,0.58
			C29.99,121.935,30.25,122.505,30.77,122.705z"/>
		<path class="st125" d="M27.23,109.575c0.51,0.2,1.09-0.06,1.29-0.58c0.19-0.51-0.06-1.09-0.58-1.29c-0.52-0.2-1.09,0.06-1.29,0.58
			C26.45,108.795,26.71,109.375,27.23,109.575z"/>
		<path class="st125" d="M26.84,132.985c0.51,0.19,1.09-0.07,1.29-0.58c0.19-0.52-0.06-1.1-0.58-1.29c-0.52-0.2-1.09,0.06-1.29,0.57
			C26.06,132.205,26.32,132.785,26.84,132.985z"/>
		<path class="st125" d="M23.29,119.845c0.52,0.2,1.1-0.06,1.3-0.57c0.19-0.52-0.06-1.1-0.58-1.3c-0.52-0.19-1.09,0.07-1.29,0.58
			C22.52,119.075,22.78,119.655,23.29,119.845z"/>
		<path class="st125" d="M19.75,106.715c0.52,0.2,1.1-0.06,1.29-0.58c0.2-0.51-0.06-1.09-0.57-1.29c-0.52-0.19-1.1,0.06-1.29,0.58
			C18.98,105.945,19.24,106.515,19.75,106.715z"/>
		<path class="st125" d="M19.36,130.125c0.52,0.19,1.1-0.06,1.3-0.58c0.19-0.52-0.07-1.09-0.58-1.29c-0.52-0.2-1.1,0.06-1.29,0.58
			C18.59,129.345,18.85,129.925,19.36,130.125z"/>
		<path class="st125" d="M15.25,115.695c-0.2,0.52,0.06,1.1,0.57,1.29c0.52,0.2,1.1-0.06,1.29-0.57c0.2-0.52-0.06-1.1-0.57-1.29
			C16.02,114.925,15.44,115.185,15.25,115.695z"/>
		<path class="st125" d="M12.61,125.395c-0.52-0.2-1.1,0.06-1.29,0.58c-0.2,0.51,0.06,1.09,0.57,1.29c0.52,0.2,1.1-0.06,1.29-0.58
			C13.38,126.175,13.12,125.595,12.61,125.395z"/>
		<path class="st125" d="M65.816,8.701c-9.272-3.541-19.699,1.117-23.24,10.387L30.427,50.836c0,0,0,0.001-0.001,0.001
			s0,0.001,0,0.001l-28.592,74.72c-3.541,9.271,1.114,19.697,10.378,23.24c2.11,0.809,4.28,1.191,6.416,1.191
			c7.245,0,14.092-4.407,16.835-11.567L76.193,31.954c0.794-2.061,1.196-4.228,1.196-6.439C77.39,18.106,72.739,11.349,65.816,8.701
			z M33.597,137.708c-3.158,8.241-12.428,12.377-20.669,9.224c-8.234-3.149-12.372-12.417-9.225-20.659l12.068-31.538l29.889,11.437
			L33.597,137.708z M46.375,104.304L16.486,92.867l15.452-40.38l29.885,11.437L46.375,104.304z M74.326,31.238L62.537,62.055
			L32.652,50.618l11.792-30.817c2.433-6.367,8.52-10.288,14.964-10.288c1.896,0,3.821,0.339,5.694,1.055
			c6.153,2.354,10.287,8.36,10.287,14.946C75.39,27.48,75.032,29.405,74.326,31.238z"/>
		<path class="st125" d="M31.078,69.4c-0.318-0.452-0.941-0.561-1.394-0.244c-0.451,0.318-0.561,0.941-0.243,1.393
			c0.411,0.584,0.908,1.082,1.472,1.472c1.046,0.74,2.269,1.126,3.525,1.126c0.353,0,0.707-0.031,1.062-0.092
			c1.616-0.281,3.028-1.173,3.976-2.514c0.319-0.451,0.212-1.075-0.239-1.394c-0.449-0.319-1.076-0.212-1.394,0.239
			c-0.641,0.905-1.594,1.508-2.685,1.697c-1.096,0.188-2.189-0.059-3.1-0.702C31.684,70.122,31.353,69.791,31.078,69.4z"/>
		<path class="st125" d="M49.543,79.148c0.249,0.029,0.495,0.044,0.739,0.044c0.457,0,0.904-0.052,1.337-0.153
			c0.538-0.127,0.871-0.666,0.744-1.203c-0.128-0.538-0.67-0.867-1.203-0.744c-0.431,0.103-0.908,0.126-1.384,0.07
			c-2.269-0.265-3.897-2.329-3.633-4.602c0.064-0.548-0.329-1.045-0.877-1.109c-0.566-0.064-1.045,0.33-1.109,0.877
			C43.765,75.697,46.181,78.756,49.543,79.148z"/>
	</g>
</g>
</svg>
