<svg id="Capa_1" data-name="Capa 1" xmlns="http://www.w3.org/2000/svg" viewBox="0 0 348.58 333.08"><defs><style>.cls-1{fill:#4b2a58;}.cls-2{fill:#46c2d1;}.cls-3{fill:#ee3a54;}.cls-4{fill:#573879;}.cls-5,.cls-8{fill:#f6e7e7;}.cls-5{stroke:#46c2d1;stroke-miterlimit:10;stroke-width:0.25px;}.cls-6{fill:#4a545c;}.cls-7{fill:#23272b;}</style></defs><title>LOGOpaco</title><path class="cls-1" d="M477.91,410.61c-1.83.05-3.66.14-5.49.14H226c-15,0-21.07-4.95-24.15-19.55q-15.72-74.43-31.54-148.84C167.85,230.81,172,224.44,184,222.2c2.25-.42,2.24-1.37,1.94-3-.52-2.78-1-5.55-1.56-8.34-2.52-14,6.4-24.8,20.62-24.87q28.49-.13,57-.17c6.62,0,13.25.27,19.87.12,9.28-.21,16.63,3.28,22.53,10.44,5.78,7,11.86,13.77,17.81,20.64,1.62,4.07,4.53,5.4,8.93,5.22,8.45-.33,16.92-.08,25.39-.1l77.65-.17c4.66.09,9.31.19,14,.25,6,.09,11.09,1.93,14.65,7,2,2.92,2.5,6.36,3.24,9.7,3,13.61,5.15,27.4,9.13,40.79-.3.59-1,1.31-.83,1.76,2.25,7.06,3.08,14.4,4.49,21.63,1.47,7.55,3.61,15,5.21,22.5,3,13.83,6,27.65,8.42,41.58.79,4.53,2.87,9,1.67,13.85a2.5,2.5,0,0,1,.09.77l-.78.88q-29.7-19.28-59.43-38.52c-2.26-1.47-5-2.6-7.58-2.05-8.78,1.87-13.14-5.77-19.59-8.84-2.21-1.05-.17-3,.35-4.35,7.42-19.46,7.1-38.76-1.36-57.76-12.69-28.48-43.87-45.89-74.9-42.07-31.52,3.88-57.37,28.1-63,59-5.78,31.88,9.47,63.48,37.65,78a73,73,0,0,0,86.32-13.89c2.46-2.53,4.08-3.24,6.87-.86a52.23,52.23,0,0,0,6.26,4.09c3.21,2,6.35,3.84,7,8.29.42,3,2.87,5.3,5.4,6.94q29.1,18.82,58.32,37.48a17.77,17.77,0,0,0,2.26,1Z" transform="translate(-169.63 -77.87)"/><path class="cls-2" d="M322.14,217c-5.95-6.87-12-13.63-17.81-20.64-5.9-7.16-13.25-10.65-22.53-10.44-6.62.15-13.25-.07-19.87-.12q0-41.7,0-83.38c0-16.19,8.13-24.35,24.18-24.36q66.15,0,132.31.06c1.87,0,4.51-1.36,5.49,1.78a124.93,124.93,0,0,0-.34,33.67c1.32,9.59,10.86,17.15,20,17.32,10.14.19,20.29,0,30.43-.08,3.08.68,1.83,3.17,1.83,4.87q.12,46.36.06,92.72c0,2.16.09,4.32.13,6.48,0,13.23,0,26.47-.14,39.71,0,1.7.81,3.64-.79,5.14-4-13.39-6.14-27.18-9.13-40.79-.74-3.34-1.21-6.78-3.24-9.7-3.56-5.11-8.68-6.95-14.65-7-4.65-.06-9.3-.16-14-.25-2.08-3.65-5.08-5.06-9.42-5C390.51,217.1,356.32,217,322.14,217Zm48.1-22c19.49,0,39,0,58.48,0,6.52,0,10.15-4.06,9.25-10.08-.65-4.35-4.3-6.89-10-6.89q-45.74,0-91.48,0c-8.33,0-16.66-.09-25,0-5.33.08-8.43,3.3-8.46,8.37,0,5.56,3.12,8.56,9.25,8.58Q341.25,195,370.24,195Zm.3-41.84c19.47,0,38.95-.18,58.42.1,6.91.1,10.35-5.67,8.74-11.32-1-3.63-5.19-5.84-10.62-5.84q-56.93,0-113.85,0c-6.33,0-10.16,3.26-10.23,8.41-.08,6,3,8.62,10.11,8.63Q341.82,153.21,370.54,153.16Z" transform="translate(-169.63 -77.87)"/><path class="cls-3" d="M399,302.64a59.51,59.51,0,0,1-59.53,59.29c-32.4,0-59.13-26.81-59.13-59.24A59.33,59.33,0,0,1,399,302.64Zm-87.28,1.56c0,1.33,0,2.66,0,4,.09,5.72.31,5.94,5.84,6a82.66,82.66,0,0,0,8.48-.05c3.74-.36,5.54.62,5.06,4.81-.38,3.28-.05,6.65-.08,10s1.51,4.95,4.83,4.94c3,0,6,0,9,0,4,0,6.22-1.76,6.05-6.06-.14-3.48.08-7-.06-10.48-.1-2.39.8-3.24,3.18-3.15,3.82.14,7.65-.06,11.48.06,2.61.09,4.13-1,4.55-3.54a39.47,39.47,0,0,0,.53-5.42c.24-12.46-.82-10.19-10.3-10.28-9.25-.08-9.25,0-9.25-9.45,0-10.2,0-10.2-10.29-10.2-9.5,0-9.5,0-9.5,9.51,0,10.12,0,10.05-10.11,10.14S311.75,293.25,311.72,304.2Z" transform="translate(-169.63 -77.87)"/><path class="cls-4" d="M475.09,279.77c1.6-1.5.78-3.44.79-5.14.11-13.24.11-26.48.14-39.71,8.5-.23,17-.5,25.48-.66,10.89-.2,17.75,6.75,16.57,17.63-1.48,13.72-3.61,27.38-5.52,41.06q-6.24,44.73-12.55,89.47c-.34,2.43-.74,4.85-1.22,7.95a14,14,0,0,1-2.9-7.88c0-1.16-.44-1.94-1.83-1.4,1.2-4.81-.88-9.32-1.67-13.85-2.4-13.93-5.46-27.75-8.42-41.58-1.6-7.53-3.74-15-5.21-22.5-1.41-7.23-2.24-14.57-4.49-21.63C474.12,281.08,474.79,280.36,475.09,279.77Z" transform="translate(-169.63 -77.87)"/><path class="cls-5" d="M474,130.85c-10.14.05-20.29.27-30.43.08-9.12-.17-18.66-7.73-20-17.32a124.93,124.93,0,0,1,.34-33.67,204.79,204.79,0,0,1,21.15,20.92c8.09,9,16.95,17.2,25.24,26C471.57,128.16,472.77,129.51,474,130.85Z" transform="translate(-169.63 -77.87)"/><path class="cls-6" d="M477.91,410.61l0-1.39c3.47,1.37,7,.12,10.48.06A16.08,16.08,0,0,1,477.91,410.61Z" transform="translate(-169.63 -77.87)"/><path class="cls-7" d="M494.14,381.86c1,.39,1.27,1.26.59,1.86-.49.43-1-.52-1.37-1Z" transform="translate(-169.63 -77.87)"/><path class="cls-8" d="M322.14,217c34.18,0,68.37.06,102.55-.09,4.34,0,7.34,1.39,9.42,5l-77.65.17c-8.47,0-16.94-.23-25.39.1C326.67,222.44,323.76,221.11,322.14,217Z" transform="translate(-169.63 -77.87)"/><path class="cls-8" d="M370.24,195q-29,0-58,0c-6.13,0-9.28-3-9.25-8.58,0-5.07,3.13-8.29,8.46-8.37,8.33-.13,16.66,0,25,0q45.75,0,91.48,0c5.74,0,9.39,2.54,10,6.89.9,6-2.73,10.07-9.25,10.08C409.23,195,389.73,195,370.24,195Z" transform="translate(-169.63 -77.87)"/><path class="cls-8" d="M370.54,153.16q-28.73,0-57.43,0c-7.15,0-10.19-2.67-10.11-8.63.07-5.15,3.9-8.41,10.23-8.41q56.92-.06,113.85,0c5.43,0,9.59,2.21,10.62,5.84,1.61,5.65-1.83,11.42-8.74,11.32C409.49,153,390,153.16,370.54,153.16Z" transform="translate(-169.63 -77.87)"/></svg>